<svg xmlns="http://www.w3.org/2000/svg" viewBox="0 0 32 32">
  <defs>
    <mask id="face">
      <rect width="32" height="32" fill="white"/>
      <circle cx="11.5" cy="15.5" r="2.3" fill="black"/>
      <circle cx="20.5" cy="15.5" r="2.3" fill="black"/>
      <path d="M 16 18.5 L 14.2 21.5 L 17.8 21.5 Z" fill="black"/>
    </mask>
    <mask id="teeth">
      <rect width="32" height="32" fill="white"/>
      <rect x="13.3" y="23" width="1.2" height="4.5" fill="black"/>
      <rect x="16.4" y="23" width="1.2" height="4.5" fill="black"/>
      <rect x="19.5" y="23" width="1.2" height="4.5" fill="black"/>
    </mask>
  </defs>
  <circle cx="16" cy="16" r="15.5" fill="#09090f"/>
  <g stroke="#09090f" stroke-width="0.7" stroke-linejoin="round">
    <ellipse cx="16" cy="15.5" rx="9.5" ry="9" fill="#fbbf24" mask="url(#face)"/>
    <rect x="10.5" y="23" width="11" height="4.5" rx="1" fill="#fbbf24" mask="url(#teeth)"/>
  </g>
  <g>
    <line x1="5.5" y1="20" x2="14.5" y2="11" stroke="#262626" stroke-width="1.2" stroke-linecap="round"/>
    <ellipse cx="10.5" cy="15.5" rx="3.5" ry="2.8" fill="#262626" stroke="#09090f" stroke-width="0.3"/>
  </g>
  <g stroke="#09090f" stroke-width="0.7" stroke-linejoin="round" fill="#1e40af">
    <path d="M 6.5 7.5 Q 16 2.5, 25.5 7.5 L 25 11 Q 16 12.5, 7 11 Z"/>
    <ellipse cx="26.5" cy="9.5" rx="2" ry="1.7"/>
    <path d="M 28 10 L 31 12 L 29 12.8 Z"/>
  </g>
</svg>
