<?xml version="1.0" encoding="UTF-8" standalone="no"?>
<!DOCTYPE svg PUBLIC "-//W3C//DTD SVG 1.1//EN" "http://www.w3.org/Graphics/SVG/1.1/DTD/svg11.dtd">
<svg width="100%" height="100%" viewBox="0 0 2084 2084" version="1.1" xmlns="http://www.w3.org/2000/svg" xmlns:xlink="http://www.w3.org/1999/xlink" xml:space="preserve" xmlns:serif="http://www.serif.com/" style="fill-rule:evenodd;clip-rule:evenodd;">
    <g id="Main-Layer" serif:id="Main Layer" transform="matrix(15.748031,0,0,15.748031,0.000079,0)">
        <path id="path1227" d="M86.378,45.457L61.835,66.832C61.835,66.832 53.567,70.2 48.261,70.339C42.954,70.477 28.137,64.472 23.506,63.134C18.876,61.795 15.311,63.894 11.973,66.393C7.189,69.975 6.351,81.225 6.675,83.066C7.406,87.225 16.466,92.756 17.836,94.285C18.986,95.568 22.128,102.214 22.483,108.219C22.696,111.836 20.325,115.756 19.919,117.56C19.454,119.621 19.758,123.895 19.758,123.895L46.056,123.895C46.758,121.741 46.153,118.667 47.679,115.564C49.635,111.586 54.149,107.389 54.149,107.389L46.376,87.024L55.523,87.024C57.968,91.905 60.148,96.673 61.965,101.287C61.965,101.287 66.545,111.707 66.429,112.499C66.429,112.499 58.268,115.923 56.767,117.068C55.444,118.079 51.767,122.44 51.09,123.84L68.34,123.895C68.34,123.895 67.346,116.835 67.641,116.258C67.866,115.819 71.949,114.115 72.576,112.875C73.203,111.635 67.811,101.255 67.811,101.255L80.755,101.115L101.968,90.019L96.13,77.598L76.202,86.522C76.202,86.522 66.791,86.819 64.511,86.731C62.231,86.642 63.59,84.902 63.59,84.902L94.483,57.29L86.378,45.457Z" style="fill:white;fill-rule:nonzero;"/>
        <path id="path2313" d="M101.082,88.998L106.003,85.685L100.417,75.556L96.018,78.438L101.082,88.998Z" style="fill-rule:nonzero;stroke:black;stroke-width:0.53px;"/>
        <path id="path2671" d="M101.113,76.7L104.841,84.091C105.147,84.697 108.985,81.74 112.685,82.237C116.363,82.73 121.346,83.323 121.346,83.323C121.346,83.323 122.384,83.609 122.258,82.651C122.132,81.693 117.665,81.291 117.665,81.291C117.665,81.291 117.079,81.04 117.045,80.81C117.006,80.554 117.672,80.379 117.672,80.379L123.564,79.222C123.564,79.222 124.59,79.036 124.585,78.35C124.58,77.663 123.12,77.645 123.12,77.645L117.485,78.364C117.485,78.364 116.398,78.577 116.401,77.886C116.403,77.524 117.179,77.127 117.179,77.127L125.206,75.064C125.206,75.064 125.883,74.862 125.616,74.189C125.349,73.516 124.794,73.4 124.39,73.482C123.986,73.564 117.03,75.265 116.045,75.567C115.537,75.723 114.953,75.99 114.733,75.415C114.601,75.071 115.018,74.643 115.362,74.53C117.165,73.936 122.254,71.615 122.254,71.615C122.254,71.615 122.855,71.126 122.426,70.314C121.996,69.502 120.458,70.351 120.458,70.351L113.399,73.596C113.399,73.596 111.435,74.219 110.937,73.333C110.44,72.447 110.545,71.688 110.666,71.437C111.053,70.638 111.905,69.191 111.905,69.191C111.905,69.191 112.445,68.509 111.988,67.857C111.53,67.204 110.493,67.826 110.493,67.826C110.493,67.826 109.35,69.844 107.576,71.31C105.998,72.613 103.788,73.357 103.462,73.725C102.771,74.505 101.113,76.7 101.113,76.7Z" style="fill:white;fill-rule:nonzero;"/>
        <path id="path9297" d="M86.523,47.727L90.696,43.041L100.087,51.638L92.663,56.876L86.523,47.727Z" style="fill-rule:nonzero;stroke:black;stroke-width:0.53px;"/>
        <path id="path9412" d="M103.734,30.105L120.253,9.352L120.866,8.699C120.866,8.699 121.16,8.41 121.387,8.581C121.615,8.752 121.279,9.122 121.279,9.122L120.537,10.184L105.182,30.748L103.734,30.105Z" style="fill:rgb(255,201,0);fill-rule:nonzero;stroke:rgb(255,221,0);stroke-width:0.26px;"/>
        <path id="path9414" d="M92.052,44.428C92.052,44.428 93.84,36.138 95.058,34.682C96.275,33.227 101.067,27.022 102.745,27.349C104.423,27.677 105.49,28.999 105.49,28.999C105.49,28.999 105.919,29.335 106.791,28.912C107.662,28.489 108.522,28.924 108.488,29.828C108.473,30.216 107.647,30.898 107.566,31.547C107.525,31.872 108.232,31.374 108.382,31.986C108.519,32.543 107.998,33.055 107.949,33.308C107.949,33.308 108.395,32.965 108.613,33.768C108.83,34.57 108.012,35.793 108.012,35.793C108.012,35.793 108.482,35.928 108.641,36.525C108.738,36.888 107.784,37.317 108.06,37.879C108.06,37.879 108.519,37.984 108.45,38.597C108.382,39.21 104.717,43.156 102.897,43.743C100.994,45.404 97.411,49.243 97.411,49.243L92.052,44.428Z" style="fill:white;fill-rule:nonzero;"/>
        <path id="path13158" d="M15.093,65.75L15.842,60.051L34.628,61.394L36.745,63.491L40.946,60.793L43.498,63.801C42.606,65.714 41.224,67.932 39.641,69.514L15.093,65.75Z" style="fill-rule:nonzero;stroke:black;stroke-width:0.53px;"/>
        <path id="path14383" d="M22.718,28.531C16.233,29.638 12.463,32.858 10.628,39.097C9.99,39.521 9.612,40.201 9.611,40.925C9.612,41.126 9.642,41.326 9.7,41.52C9.27,41.939 9.03,42.493 9.029,43.069C9.029,43.755 9.368,44.404 9.95,44.832C9.389,45.26 9.065,45.896 9.064,46.566C9.065,47.566 9.78,48.445 10.82,48.728C10.845,48.801 10.87,48.875 10.896,48.948C10.542,49.349 10.348,49.851 10.348,50.368C10.349,51.594 11.413,52.595 12.744,52.621C12.629,52.887 12.57,53.171 12.57,53.457C12.569,54.702 13.666,55.712 15.018,55.712C15.201,55.712 15.384,55.693 15.563,55.655C16.107,56.103 16.684,56.514 17.294,56.882L17.188,59.994L33.633,61.127L35.837,58.851C35.837,58.851 36.869,58.198 41.471,58.342C42.255,58.367 42.493,54.397 42.529,53.746C42.541,53.539 41.631,53.125 41.652,52.905C41.672,52.684 42.505,52.411 42.502,51.967C42.5,51.766 42.129,51.239 41.92,50.903C41.565,49.832 41.535,48.81 41.632,47.711C41.752,47.55 44.143,47.215 44.143,47.215C44.78,46.613 42.491,43.769 41.767,43.134C41.042,42.5 39.418,36.957 37.468,34.982C34.881,32.362 32.066,29.99 30.277,29.353C28.84,28.794 26.218,28.558 22.718,28.531ZM35.446,38.892C36.448,38.657 37.497,40.031 37.896,41.51C38.36,43.235 37.823,44.879 36.695,45.183C35.862,45.406 34.905,44.835 34.276,43.74C34.148,43.842 34.016,43.976 33.885,44.155C33.232,45.046 32.018,57.799 32.018,57.799C31.823,57.714 31.633,57.717 31.382,57.875C31.382,57.875 32.18,47.544 32.509,46.198C32.824,44.911 33.338,43.195 33.816,42.628C33.815,42.622 33.813,42.617 33.811,42.611C33.347,40.887 33.884,39.243 35.012,38.939C35.152,38.901 35.301,38.927 35.446,38.892L35.446,38.892Z" style="fill:white;fill-rule:nonzero;"/>
    </g>
</svg>
