<svg xmlns="http://www.w3.org/2000/svg" viewBox="0 0 32 32">
  <rect width="32" height="32" rx="7" fill="#09090f"/>
  <g fill="none" stroke="#f59e0b" stroke-linecap="round">
    <line x1="16" y1="7"  x2="16" y2="25" stroke-width="1.4"/>
    <line x1="7"  y1="16" x2="25" y2="16" stroke-width="1.4"/>
    <line x1="9.64"  y1="9.64"  x2="22.36" y2="22.36" stroke-width="1.4"/>
    <line x1="9.64"  y1="22.36" x2="22.36" y2="9.64"  stroke-width="1.4"/>
    <circle cx="16" cy="16" r="9" stroke-width="1.8"/>
    <line x1="16"   y1="3.5"  x2="16"   y2="6.5"  stroke-width="2.2"/>
    <line x1="16"   y1="25.5" x2="16"   y2="28.5" stroke-width="2.2"/>
    <line x1="3.5"  y1="16"   x2="6.5"  y2="16"   stroke-width="2.2"/>
    <line x1="25.5" y1="16"   x2="28.5" y2="16"   stroke-width="2.2"/>
    <line x1="6.96"  y1="6.96"  x2="9.08"  y2="9.08"  stroke-width="2.2"/>
    <line x1="22.92" y1="22.92" x2="25.04" y2="25.04" stroke-width="2.2"/>
    <line x1="22.92" y1="9.08"  x2="25.04" y2="6.96"  stroke-width="2.2"/>
    <line x1="6.96"  y1="22.92" x2="9.08"  y2="25.04" stroke-width="2.2"/>
  </g>
  <circle cx="16" cy="16" r="2.5" fill="#f59e0b"/>
  <circle cx="16" cy="16" r="1" fill="#09090f"/>
</svg>
